<svg
  width="16"
  height="16"
  viewBox="0 0 16 16"
  fill="none"
  xmlns="http://www.w3.org/2000/svg"
>
  <path
    fill-rule="evenodd"
    clip-rule="evenodd"
    d="M1.75 1.5C1.6837 1.5 1.62011 1.52634 1.57322 1.57322C1.52634 1.62011 1.5 1.6837 1.5 1.75V14.25C1.5 14.388 1.612 14.5 1.75 14.5H14.25C14.3163 14.5 14.3799 14.4737 14.4268 14.4268C14.4737 14.3799 14.5 14.3163 14.5 14.25V1.75C14.5 1.6837 14.4737 1.62011 14.4268 1.57322C14.3799 1.52634 14.3163 1.5 14.25 1.5H1.75ZM0 1.75C0 0.784 0.784 0 1.75 0H14.25C15.216 0 16 0.784 16 1.75V14.25C16 14.7141 15.8156 15.1592 15.4874 15.4874C15.1592 15.8156 14.7141 16 14.25 16H1.75C1.28587 16 0.840752 15.8156 0.512563 15.4874C0.184374 15.1592 0 14.7141 0 14.25L0 1.75ZM9.22 5.47C9.07955 5.61063 9.00066 5.80125 9.00066 6C9.00066 6.19875 9.07955 6.38937 9.22 6.53L10.69 8L9.22 9.47C9.14631 9.53866 9.08721 9.62146 9.04622 9.71346C9.00523 9.80546 8.98318 9.90478 8.98141 10.0055C8.97963 10.1062 8.99816 10.2062 9.03588 10.2996C9.0736 10.393 9.12974 10.4778 9.20096 10.549C9.27218 10.6203 9.35701 10.6764 9.4504 10.7141C9.54379 10.7518 9.64382 10.7704 9.74452 10.7686C9.84522 10.7668 9.94454 10.7448 10.0365 10.7038C10.1285 10.6628 10.2113 10.6037 10.28 10.53L12.28 8.53C12.4205 8.38937 12.4993 8.19875 12.4993 8C12.4993 7.80125 12.4205 7.61063 12.28 7.47L10.28 5.47C10.1394 5.32955 9.94875 5.25066 9.75 5.25066C9.55125 5.25066 9.36063 5.32955 9.22 5.47ZM6.78 6.53C6.91248 6.38783 6.9846 6.19978 6.98117 6.00548C6.97775 5.81118 6.89903 5.62579 6.76162 5.48838C6.62421 5.35097 6.43882 5.27225 6.24452 5.26883C6.05022 5.2654 5.86217 5.33752 5.72 5.47L3.72 7.47C3.57955 7.61063 3.50066 7.80125 3.50066 8C3.50066 8.19875 3.57955 8.38937 3.72 8.53L5.72 10.53C5.78866 10.6037 5.87146 10.6628 5.96346 10.7038C6.05546 10.7448 6.15477 10.7668 6.25548 10.7686C6.35618 10.7704 6.45621 10.7518 6.5496 10.7141C6.64299 10.6764 6.72782 10.6203 6.79904 10.549C6.87026 10.4778 6.9264 10.393 6.96412 10.2996C7.00184 10.2062 7.02037 10.1062 7.01859 10.0055C7.01681 9.90478 6.99477 9.80546 6.95378 9.71346C6.91279 9.62146 6.85369 9.53866 6.78 9.47L5.31 8L6.78 6.53Z"
    fill="#BDBDBD"
  />
</svg>
