<svg viewBox="0 0 43 58" fill="none" xmlns="http://www.w3.org/2000/svg">
  <path
    d="M23.0724 11.518L23.3107 11.6017C24.2043 11.9206 25.1213 12.0748 26.028 12.0748C28.1728 12.0748 30.258 11.2069 31.8407 9.57309C34.084 7.25697 34.8352 3.89257 33.8016 0.797431L33.7213 0.55693L33.483 0.473278C30.4704 -0.598519 27.2014 0.180494 24.953 2.50185C22.7097 4.81798 21.9585 8.18237 22.992 11.2775L23.0724 11.518ZM18.5133 11.8709C19.0702 11.8709 19.6298 11.7768 20.1686 11.586L20.4069 11.5023L20.4872 11.2618C21.127 9.34566 20.6607 7.26481 19.2723 5.82965C17.8994 4.41278 15.8245 3.91871 13.9828 4.57225L13.7445 4.6559L13.6642 4.8964C13.0243 6.81256 13.4906 8.89342 14.879 10.3286C15.853 11.3324 17.1741 11.8709 18.5133 11.8709ZM21.5 13.6355C9.64392 13.6355 0 23.5875 0 35.8164C0 44.9633 5.32319 53.0567 13.5424 56.4289C13.8325 56.5622 14.1408 56.6276 14.4594 56.6276C15.7054 56.6276 16.7208 55.5845 16.7208 54.3062C16.7208 53.407 16.2079 52.5783 15.3971 52.194L15.2728 52.1391C15.2728 52.1391 15.0215 52.0345 14.8972 51.9796C12.8767 51.0961 11.0608 49.8334 9.49886 48.2231C7.93687 46.6128 6.71163 44.7359 5.85681 42.6472C4.9709 40.4853 4.52277 38.1874 4.52277 35.819C4.52277 33.4506 4.9709 31.1502 5.85681 28.9909C6.71163 26.9022 7.93946 25.0253 9.49886 23.415C11.0583 21.8046 12.8741 20.5394 14.8972 19.6584C16.9876 18.7461 19.2075 18.2834 21.5 18.2834C23.7925 18.2834 26.015 18.7461 28.1028 19.6584C30.1233 20.542 31.9392 21.8046 33.5011 23.415C35.0631 25.0279 36.2884 26.9022 37.1432 28.9909C38.0291 31.1502 38.4772 33.448 38.4772 35.819C38.4772 38.1901 38.0291 40.4879 37.1432 42.6472C36.2884 44.7359 35.0631 46.6128 33.5011 48.2231C31.9417 49.8334 30.1259 51.0987 28.1028 51.9796C26.7118 52.5861 25.2534 52.9965 23.7614 53.2004V46.422C30.0845 45.5332 30.0845 40.5663 30.0845 33.1343V32.6115H12.9155V33.6571C12.9181 40.5271 12.9207 45.5332 19.2386 46.422V55.6786C19.2386 56.9596 20.254 58 21.5 58C33.3535 58 43 48.048 43 35.8164C43 23.5849 33.3561 13.6355 21.5 13.6355ZM21.5 41.9204C19.7308 41.9204 18.9096 41.6433 18.5755 41.4786C18.3113 41.3479 18.1947 41.2251 18.06 40.9297C17.6714 40.0853 17.5419 38.5926 17.4875 37.2542H25.5125C25.4581 38.5926 25.3286 40.0827 24.94 40.9271C24.8053 41.2198 24.6887 41.3427 24.4245 41.476C24.0904 41.6433 23.2666 41.9204 21.5 41.9204ZM25.4633 24.3377C24.2173 24.3377 23.2019 25.3808 23.2019 26.6591V30.3529H27.7246V26.6617C27.7246 25.3808 26.7092 24.3377 25.4633 24.3377ZM17.5367 24.3377C16.2908 24.3377 15.2754 25.3808 15.2754 26.6591V30.3529H19.7981V26.6617C19.7981 25.3808 18.7827 24.3377 17.5367 24.3377Z"
    fill="#00D71D"
  />
</svg>
